<svg width="502" height="479" viewBox="0 0 502 479" fill="none" xmlns="http://www.w3.org/2000/svg">
<g opacity="0.2">
<path d="M438.19 70.7685C438.225 70.733 438.225 70.733 438.261 70.6974C439.362 69.4537 440.464 68.1389 441.53 66.8596C442.099 66.22 441.992 65.2605 441.352 64.763C440.713 64.1944 439.753 64.3011 439.256 64.9407C438.19 66.22 437.088 67.4637 435.986 68.7074C435.418 69.3471 435.489 70.271 436.129 70.8396C436.733 71.3726 437.621 71.3371 438.19 70.7685Z" fill="#4691F2"/>
<path d="M210.905 347.305C211.545 346.665 212.184 345.954 212.824 345.244C213.393 344.604 213.286 343.645 212.646 343.147C212.007 342.579 211.047 342.685 210.55 343.325C208.453 345.777 206.001 347.873 203.407 349.472C202.697 349.899 202.483 350.823 202.91 351.534C203.336 352.244 204.26 352.457 204.971 352.031C207.032 350.752 209.057 349.153 210.905 347.305ZM217.977 336.893C218.119 336.751 218.19 336.609 218.297 336.431C219.718 333.162 220.571 329.75 220.926 326.339C220.997 325.486 220.429 324.775 219.576 324.704C218.723 324.633 218.012 325.202 217.941 326.055C217.621 329.146 216.84 332.202 215.525 335.223C215.205 335.969 215.56 336.893 216.307 337.213C216.911 337.461 217.55 337.319 217.977 336.893ZM195.909 355.265C196.229 354.945 196.442 354.447 196.336 353.914C196.158 353.097 195.412 352.564 194.594 352.671C191.503 353.204 188.305 353.275 185.107 352.848C184.289 352.742 183.507 353.31 183.401 354.128C183.294 354.945 183.863 355.727 184.68 355.833C188.198 356.295 191.716 356.26 195.092 355.656C195.412 355.62 195.696 355.478 195.909 355.265ZM219.611 317.348C220.002 316.958 220.144 316.389 220.002 315.891C219.149 312.907 217.728 310.135 215.845 307.683C215.56 307.327 215.276 306.972 214.992 306.617C214.423 305.977 213.499 305.906 212.86 306.475C212.256 307.008 212.149 307.967 212.718 308.607C212.966 308.927 213.251 309.211 213.464 309.566C215.098 311.698 216.342 314.15 217.124 316.78C217.373 317.597 218.19 318.059 219.007 317.81C219.22 317.668 219.434 317.526 219.611 317.348ZM176.365 352.777C176.507 352.635 176.614 352.457 176.685 352.315C177.004 351.569 176.649 350.645 175.903 350.325C172.989 349.117 170.217 347.482 167.552 345.528C166.912 345.031 165.917 345.173 165.455 345.848C164.958 346.487 165.1 347.482 165.775 347.944C168.583 350.041 171.603 351.782 174.695 353.097C175.263 353.31 175.938 353.204 176.365 352.777ZM333.822 178.547C334.391 177.979 334.426 177.019 333.858 176.451C333.254 175.846 332.33 175.846 331.726 176.38C329.487 178.547 326.964 180.715 324.334 182.918C323.695 183.416 323.588 184.375 324.121 185.05C324.618 185.69 325.578 185.796 326.253 185.263C328.954 183.06 331.477 180.821 333.822 178.547ZM340.716 171.369C340.752 171.333 340.752 171.333 340.787 171.298C343.061 168.668 345.158 165.932 346.97 163.267C347.432 162.592 347.255 161.632 346.579 161.17C345.904 160.708 344.945 160.886 344.483 161.561C342.706 164.191 340.681 166.785 338.513 169.308C337.944 169.948 338.051 170.907 338.655 171.44C339.295 171.938 340.183 171.902 340.716 171.369ZM417.686 92.6226C418.254 92.054 418.29 91.0945 417.686 90.4904C417.082 89.8863 416.158 89.8863 415.554 90.4905C413.208 92.8358 410.792 95.1101 408.375 97.3843C407.807 97.9529 407.771 98.9123 408.304 99.5164C408.908 100.121 409.832 100.121 410.436 99.5875C412.853 97.3132 415.305 95.0034 417.686 92.6226ZM424.722 85.5155C427.067 83.0991 429.377 80.6471 431.616 78.1952C432.184 77.5556 432.113 76.6316 431.545 76.0631C430.905 75.4945 429.981 75.5656 429.412 76.1341C427.209 78.5506 424.899 81.0025 422.59 83.3834C421.985 83.9875 422.021 84.9469 422.661 85.5155C423.158 86.0841 424.118 86.1196 424.722 85.5155ZM318.4 191.269C318.897 190.771 318.968 189.919 318.577 189.314C318.116 188.639 317.121 188.497 316.481 188.995C315.095 190.025 313.638 191.056 312.146 192.051C310.866 192.903 309.623 193.792 308.308 194.609C307.633 195.071 307.419 195.995 307.881 196.67C308.343 197.345 309.267 197.559 309.942 197.097C311.257 196.208 312.536 195.355 313.816 194.503C315.344 193.472 316.801 192.442 318.187 191.411C318.293 191.375 318.364 191.304 318.4 191.269ZM207.21 302.388C207.316 302.281 207.423 302.175 207.458 302.068C207.849 301.322 207.6 300.434 206.854 300.043C203.905 298.444 200.6 297.2 197.082 296.454C196.265 296.276 195.447 296.809 195.27 297.626C195.092 298.444 195.625 299.261 196.442 299.439C199.676 300.114 202.697 301.215 205.397 302.708C206.037 302.992 206.748 302.85 207.21 302.388ZM403.152 106.304C403.72 105.735 403.756 104.847 403.223 104.243C402.654 103.603 401.695 103.567 401.091 104.101C398.603 106.304 396.116 108.507 393.593 110.675C392.953 111.243 392.882 112.167 393.451 112.807C394.019 113.446 394.943 113.517 395.583 112.949C398.106 110.781 400.664 108.578 403.116 106.339C403.116 106.339 403.116 106.339 403.152 106.304ZM387.943 119.239C388.476 118.706 388.547 117.853 388.049 117.213C387.552 116.573 386.592 116.467 385.917 117C384.14 118.421 382.328 119.878 380.551 121.3C379.769 121.939 378.917 122.579 378.099 123.183C377.46 123.681 377.282 124.64 377.815 125.315C378.312 125.955 379.272 126.132 379.947 125.599C380.8 124.96 381.582 124.32 382.435 123.681C384.211 122.259 386.059 120.838 387.836 119.345C387.836 119.345 387.872 119.31 387.943 119.239ZM351.839 154.845C351.945 154.738 352.016 154.596 352.123 154.419C352.869 152.891 353.58 151.327 354.219 149.764C354.859 148.2 355.428 146.565 355.89 144.895C356.138 144.078 355.676 143.261 354.859 143.012C354.042 142.763 353.224 143.225 352.976 144.042C352.514 145.57 351.981 147.169 351.377 148.626C350.808 150.119 350.097 151.611 349.387 153.104C348.996 153.85 349.316 154.738 350.062 155.129C350.701 155.414 351.412 155.271 351.839 154.845ZM301.769 202.285C302.267 201.787 302.373 201.041 301.982 200.437C301.556 199.726 300.632 199.513 299.921 199.939C297.114 201.681 294.236 203.351 291.357 204.95C290.611 205.341 290.362 206.3 290.789 207.011C291.18 207.757 292.139 208.006 292.85 207.58C295.764 205.945 298.678 204.239 301.521 202.534C301.592 202.462 301.698 202.356 301.769 202.285ZM372.023 131.321C372.52 130.823 372.627 130.006 372.2 129.437C371.738 128.762 370.779 128.584 370.104 129.046C367.19 131.036 364.454 132.778 361.753 134.341C361.042 134.768 360.794 135.656 361.184 136.402C361.611 137.113 362.499 137.362 363.245 136.971C366.053 135.372 368.825 133.595 371.774 131.569C371.881 131.463 371.952 131.392 372.023 131.321ZM160.445 340.98C160.978 340.446 161.049 339.523 160.516 338.918C158.384 336.431 156.607 333.73 155.15 330.923C154.759 330.177 153.871 329.857 153.125 330.248C152.378 330.639 152.059 331.527 152.449 332.273C153.977 335.294 155.932 338.172 158.171 340.837C158.739 341.477 159.663 341.548 160.303 340.979C160.374 341.051 160.409 341.015 160.445 340.98ZM284.357 212.022C284.819 211.56 284.925 210.884 284.641 210.245C284.25 209.499 283.362 209.179 282.616 209.57C279.666 211.098 276.681 212.519 273.661 213.905C272.879 214.26 272.559 215.149 272.914 215.93C273.27 216.712 274.158 217.032 274.94 216.677C277.961 215.291 281.017 213.798 283.966 212.27C284.073 212.235 284.25 212.128 284.357 212.022ZM354.681 141.199C355.108 140.773 355.25 140.133 355.001 139.529C354.681 138.783 353.758 138.428 353.011 138.748C349.92 140.133 346.828 141.235 343.843 142.088C343.061 142.301 342.564 143.154 342.777 143.936C342.99 144.717 343.843 145.215 344.625 145.002C347.752 144.149 350.986 142.976 354.219 141.519C354.433 141.448 354.539 141.342 354.681 141.199ZM357.453 135.727C357.702 135.478 357.844 135.194 357.88 134.803C358.235 131.392 358.306 127.909 358.057 124.533C357.986 123.681 357.24 123.076 356.458 123.147C355.605 123.219 355.037 123.929 355.072 124.747C355.286 127.945 355.286 131.214 354.895 134.448C354.788 135.265 355.392 136.011 356.209 136.118C356.707 136.26 357.133 136.047 357.453 135.727ZM266.198 220.372C266.625 219.946 266.767 219.306 266.518 218.702C266.198 217.956 265.31 217.565 264.564 217.885C263.427 218.382 262.289 218.809 261.152 219.306C259.269 220.053 257.386 220.799 255.324 221.581C254.543 221.865 254.152 222.753 254.436 223.535C254.72 224.317 255.609 224.708 256.391 224.423C258.452 223.642 260.406 222.895 262.289 222.149C263.462 221.687 264.599 221.19 265.736 220.763C265.914 220.657 266.056 220.514 266.198 220.372ZM187.914 298.159C188.198 297.875 188.376 297.484 188.34 297.022C188.305 296.205 187.594 295.565 186.777 295.601C184.716 295.672 182.69 295.921 180.7 296.276C179.35 296.56 177.999 296.845 176.614 297.235C175.832 297.449 175.334 298.301 175.547 299.083C175.761 299.865 176.614 300.363 177.395 300.149C178.675 299.794 179.989 299.474 181.269 299.261C183.117 298.906 185.035 298.692 186.883 298.621C187.345 298.586 187.665 298.408 187.914 298.159ZM56.1841 427.046C56.2907 426.94 56.3618 426.797 56.4684 426.62C57.9253 423.67 59.4178 420.685 60.9813 417.772C61.3722 417.025 61.088 416.101 60.3772 415.746C59.631 415.355 58.7071 415.639 58.3517 416.35C56.7882 419.264 55.2602 422.284 53.8032 425.305C53.4123 426.051 53.7321 426.94 54.4784 427.331C55.0469 427.615 55.7221 427.508 56.1841 427.046ZM335.528 146.494C335.848 146.174 335.99 145.748 335.954 145.286C335.883 144.433 335.137 143.829 334.32 143.936C332.294 144.113 330.233 144.184 328.208 144.149C327.035 144.113 325.862 144.007 324.69 143.829C323.872 143.722 323.09 144.291 322.984 145.108C322.877 145.926 323.446 146.707 324.263 146.814C325.542 146.956 326.822 147.098 328.101 147.098C330.233 147.169 332.401 147.063 334.568 146.885C334.924 146.885 335.279 146.743 335.528 146.494ZM247.507 227.479C247.898 227.089 248.075 226.484 247.862 225.916C247.578 225.134 246.725 224.708 245.943 224.992C243.065 226.022 240.151 227.017 237.272 227.977L236.526 228.226C235.744 228.51 235.318 229.363 235.602 230.145C235.887 230.926 236.739 231.353 237.521 231.068L238.267 230.82C241.181 229.825 244.06 228.794 246.974 227.799C247.187 227.728 247.365 227.622 247.507 227.479ZM65.5654 409.421C65.672 409.314 65.7431 409.243 65.8141 409.101C67.4488 406.258 69.19 403.38 70.8958 400.537C71.3222 399.826 71.1089 398.902 70.3982 398.476C69.6875 398.049 68.7636 398.263 68.3372 398.973C66.5604 401.816 64.8547 404.73 63.1845 407.608C62.7581 408.319 63.0424 409.243 63.7531 409.669C64.3572 409.989 65.1035 409.883 65.5654 409.421ZM151.49 323.354C151.845 322.999 152.023 322.466 151.916 321.933C151.348 319.445 150.921 316.886 150.779 314.257C151.028 314.079 151.277 313.902 151.561 313.688C152.236 313.226 152.414 312.267 151.881 311.592C151.419 310.988 150.637 310.774 149.998 311.13C149.749 310.952 149.465 310.881 149.109 310.881C148.292 310.917 147.617 311.592 147.652 312.409C147.652 312.551 147.652 312.622 147.652 312.764C147.546 312.871 147.403 312.942 147.297 313.049C145.413 314.435 143.566 315.856 141.718 317.277C141.078 317.775 140.972 318.734 141.433 319.41C141.931 320.049 142.89 320.156 143.566 319.694C145.023 318.592 146.444 317.455 147.936 316.389C148.15 318.521 148.541 320.618 149.003 322.643C149.18 323.461 150.033 323.958 150.815 323.745C151.028 323.674 151.312 323.532 151.49 323.354ZM168.725 303.205C169.151 302.779 169.293 302.068 169.009 301.5C168.654 300.718 167.765 300.398 167.019 300.789C164.105 302.139 161.191 303.703 158.1 305.657C157.389 306.084 157.176 307.008 157.602 307.718C158.029 308.429 158.952 308.642 159.663 308.216C162.684 306.332 165.491 304.804 168.263 303.525C168.476 303.454 168.618 303.312 168.725 303.205ZM355.89 115.969C356.245 115.614 356.458 115.045 356.281 114.512C355.321 111.137 354.042 107.867 352.407 104.953C352.016 104.207 351.092 103.923 350.382 104.349C349.635 104.74 349.351 105.664 349.778 106.375C351.27 109.147 352.478 112.132 353.367 115.294C353.58 116.076 354.433 116.573 355.214 116.36C355.499 116.289 355.712 116.147 355.89 115.969ZM76.0484 392.399C76.1194 392.328 76.1905 392.257 76.226 392.15C78.0383 389.414 79.9572 386.642 81.8406 383.977C82.3026 383.302 82.1605 382.378 81.4853 381.845C80.8101 381.383 79.8862 381.525 79.3531 382.201C77.4342 384.901 75.5153 387.673 73.6675 390.445C73.2055 391.12 73.3832 392.079 74.0939 392.506C74.7335 393.003 75.5509 392.897 76.0484 392.399ZM87.6329 376.124C87.6684 376.088 87.7395 376.017 87.775 375.982C89.765 373.352 91.826 370.723 93.9227 368.2C94.4202 367.56 94.3491 366.636 93.7095 366.067C93.0698 365.57 92.1103 365.606 91.5773 366.281C89.4807 368.875 87.3842 371.54 85.3942 374.17C84.8967 374.809 85.0033 375.769 85.6784 376.302C86.247 376.728 87.0999 376.657 87.6329 376.124ZM228.673 234.018C229.064 233.627 229.241 233.023 229.028 232.454C228.744 231.673 227.891 231.246 227.109 231.53C223.591 232.774 220.535 233.911 217.692 234.977C216.911 235.262 216.52 236.15 216.804 236.932C217.088 237.714 217.977 238.105 218.759 237.82C221.53 236.754 224.622 235.653 228.104 234.373C228.318 234.302 228.495 234.196 228.673 234.018ZM135.926 325.77C136.459 325.237 136.494 324.349 136.032 323.745C135.535 323.105 134.54 323.034 133.9 323.532C131.341 325.664 128.783 327.867 126.295 330.07C125.656 330.639 125.62 331.598 126.153 332.202C126.722 332.842 127.681 332.877 128.285 332.344C130.773 330.141 133.296 327.974 135.819 325.877C135.854 325.841 135.89 325.806 135.926 325.77ZM100.248 360.666C100.283 360.631 100.284 360.631 100.319 360.595C102.487 358.072 104.725 355.62 106.929 353.204C107.497 352.564 107.426 351.64 106.858 351.072C106.218 350.503 105.33 350.539 104.725 351.143C102.451 353.559 100.212 356.082 98.0448 358.605C97.4762 359.245 97.5473 360.169 98.1869 360.737C98.791 361.27 99.6794 361.235 100.248 360.666ZM120.965 339.025C121.534 338.456 121.569 337.497 121.001 336.928C120.397 336.324 119.473 336.324 118.869 336.857C116.452 339.132 114.036 341.477 111.69 343.893C111.086 344.497 111.122 345.457 111.69 346.026C112.294 346.63 113.254 346.594 113.823 346.026C116.132 343.645 118.513 341.335 120.965 339.025ZM315.912 143.794C316.054 143.651 316.161 143.474 316.268 143.296C316.588 142.55 316.197 141.661 315.45 141.342C312.465 140.133 309.658 138.534 307.064 136.651C306.389 136.189 305.465 136.331 304.967 136.971C304.505 137.646 304.648 138.57 305.287 139.067C308.095 141.093 311.115 142.763 314.278 144.078C314.846 144.362 315.486 144.22 315.912 143.794ZM150.815 303.49C151.028 303.276 151.17 302.992 151.241 302.637C151.739 299.51 152.521 296.312 153.516 293.184C153.8 292.403 153.338 291.514 152.556 291.301C151.774 291.017 150.921 291.443 150.673 292.26C149.607 295.53 148.789 298.906 148.256 302.21C148.15 303.028 148.718 303.809 149.536 303.916C150.033 303.987 150.495 303.809 150.815 303.49ZM209.981 241.196C210.408 240.77 210.55 240.13 210.301 239.526C209.981 238.78 209.093 238.389 208.311 238.744L207.458 239.1C204.58 240.343 201.808 241.623 199.179 242.902C198.432 243.293 198.112 244.181 198.503 244.927C198.894 245.674 199.783 245.993 200.529 245.602C203.123 244.359 205.859 243.044 208.702 241.836L209.555 241.48C209.733 241.445 209.875 241.303 209.981 241.196ZM346.366 98.6281C346.935 98.0595 346.97 97.1 346.402 96.5315C346.153 96.2827 345.904 96.034 345.691 95.8208C344.625 94.7547 343.452 93.7242 342.244 92.8003C341 91.8408 339.65 90.9169 338.193 90.1706C337.447 89.7797 336.558 90.0285 336.167 90.7747C335.777 91.521 336.025 92.4094 336.772 92.8003C338.051 93.511 339.259 94.2927 340.432 95.1811C341.533 96.0695 342.599 96.9934 343.594 97.9884C343.808 98.2016 344.021 98.4148 344.27 98.6636C344.767 99.2322 345.727 99.2677 346.366 98.6281ZM192.107 250.044C192.569 249.582 192.676 248.836 192.356 248.232C191.929 247.521 191.041 247.273 190.295 247.664C187.274 249.405 184.396 251.217 181.766 253.065C181.091 253.527 180.913 254.486 181.375 255.162C181.837 255.837 182.797 256.014 183.472 255.552C186.066 253.74 188.909 251.963 191.787 250.293C191.929 250.222 192.036 250.115 192.107 250.044ZM156.998 284.585C157.105 284.478 157.211 284.372 157.282 284.229C158.739 281.351 160.445 278.508 162.364 275.879C162.826 275.203 162.684 274.28 162.009 273.747C161.333 273.285 160.409 273.427 159.876 274.102C157.886 276.874 156.11 279.788 154.582 282.808C154.191 283.554 154.511 284.443 155.257 284.834C155.861 285.153 156.572 285.011 156.998 284.585ZM175.761 261.487C176.294 260.954 176.365 260.03 175.832 259.426C175.263 258.786 174.339 258.715 173.735 259.248C171.852 260.847 170.039 262.517 168.369 264.188C167.694 264.863 167.019 265.538 166.415 266.213C165.846 266.853 165.846 267.777 166.486 268.345C167.126 268.914 168.014 268.878 168.618 268.274C169.222 267.599 169.862 266.959 170.537 266.284C172.172 264.649 173.913 263.05 175.725 261.522C175.725 261.522 175.725 261.522 175.761 261.487ZM299.921 132.209C300.454 131.676 300.49 130.788 300.028 130.184C297.896 127.625 296.261 124.924 295.124 122.081C294.84 121.3 293.916 120.944 293.17 121.264C292.388 121.548 292.033 122.472 292.352 123.219C293.596 126.31 295.408 129.331 297.718 132.138C298.216 132.778 299.211 132.849 299.85 132.351C299.886 132.245 299.921 132.209 299.921 132.209ZM329.167 89.2467C329.38 89.0335 329.522 88.7492 329.593 88.4649C329.771 87.6476 329.203 86.8658 328.385 86.6882C325.009 86.0841 321.527 85.9419 318.009 86.2617C317.156 86.3328 316.552 87.0791 316.659 87.8964C316.765 88.7137 317.476 89.3533 318.293 89.2467C321.527 88.9269 324.725 89.069 327.817 89.6021C328.314 89.7442 328.812 89.6021 329.167 89.2467ZM292.885 113.944C293.17 113.66 293.312 113.304 293.312 112.878C293.312 111.243 293.525 109.608 293.88 107.974C294.2 106.517 294.662 105.131 295.302 103.781C295.657 102.999 295.337 102.111 294.591 101.791C293.809 101.435 292.921 101.755 292.601 102.501C291.89 103.994 291.322 105.629 290.966 107.263C290.576 109.075 290.327 110.959 290.327 112.807C290.327 113.66 291.002 114.335 291.819 114.299C292.246 114.37 292.637 114.193 292.885 113.944ZM309.516 91.2012C309.942 90.7747 310.085 90.1351 309.871 89.5665C309.551 88.8203 308.663 88.4294 307.917 88.7492C304.541 90.1351 301.52 91.9474 298.962 94.1506C298.358 94.6836 298.251 95.6431 298.82 96.2827C299.388 96.9224 300.312 96.9934 300.952 96.4249C303.226 94.4349 305.962 92.7647 309.018 91.5565C309.196 91.4499 309.374 91.3433 309.516 91.2012Z" fill="#4691F2"/>
<path d="M49.8587 440.763C50.0008 440.621 50.0719 440.479 50.1785 440.301C50.8536 438.773 51.5288 437.245 52.204 435.717C52.5238 434.971 52.204 434.082 51.4222 433.727C50.676 433.407 49.7876 433.727 49.4323 434.509C48.7571 436.037 48.0464 437.6 47.3712 439.128C47.0514 439.875 47.4067 440.799 48.153 441.118C48.7571 441.367 49.4322 441.189 49.8587 440.763Z" fill="#4691F2"/>
<path d="M475.608 71.5767C477.147 69.6424 477.518 67.032 476.623 64.7418L467.447 41.3384C466.801 39.6882 467.09 37.8964 468.128 36.5116L474.019 28.9447C475.496 27.0877 476.509 24.8615 477.02 22.5518L477.34 21.0378C477.591 19.8482 476.353 18.8636 475.25 19.3763L473.847 20.0288C471.712 21.0462 469.771 22.534 468.294 24.391L462.247 31.8348C461.17 33.1888 459.42 33.8809 457.698 33.5848L432.829 29.9119C430.397 29.5561 427.937 30.5049 426.398 32.4393C436.987 34.2926 448.088 39.3945 452.595 41.5894C453.229 41.9041 453.354 42.6989 452.954 43.2018L451.03 42.3659C450.102 41.9439 449.023 42.3485 448.523 43.2145L447.249 45.6113C447.072 45.9129 447.011 46.3068 447.09 46.6848C447.168 47.0629 447.107 47.4568 446.9 47.797L446.4 48.6631L447.232 47.935C447.486 47.695 447.787 47.5552 448.134 47.5156L448.69 47.4522L449.593 47.3493L448.331 48.9355C447.531 49.9413 446.817 51.0782 446.279 52.23L443.548 58.2052L436.648 56.0017C435.149 55.5042 433.53 56.111 432.7 57.4721L431.486 59.475L441.57 62.7579L440.81 64.4275C440.664 64.6904 441.012 64.9674 441.236 64.766L442.692 63.6502L448.199 72.7669L449.908 71.0946C451.016 70.0183 451.243 68.3039 450.452 66.9166L446.705 60.5893L451.881 56.622C452.913 55.8007 453.829 54.8871 454.629 53.8813L455.891 52.2951L455.994 53.198L456.057 53.7536C456.097 54.1009 456.028 54.4254 455.851 54.7269L455.329 55.7011L456.061 55.0197C456.346 54.741 456.716 54.5932 457.102 54.5844C457.488 54.5756 457.819 54.3971 458.112 54.1878L460.16 52.4064C460.93 51.7557 461.043 50.582 460.423 49.7731L459.175 48.0861C459.606 47.5445 460.416 47.5576 460.827 48.0736C463.988 52.0403 471.419 61.6765 475.608 71.5767Z" fill="#4691F2"/>
<path d="M47.6058 478.659C69.6596 478.659 47.6058 452.128 47.6058 452.128C47.6058 452.128 25.552 478.659 47.6058 478.659ZM47.6058 461.845C51.7022 461.845 55.0365 465.179 55.0365 469.276C55.0365 473.372 51.7022 476.706 47.6058 476.706C43.5094 476.706 40.1752 473.372 40.1752 469.276C40.1752 465.179 43.5094 461.845 47.6058 461.845Z" fill="#4691F2"/>
<path d="M47.6058 475.753C51.1782 475.753 54.0361 472.895 54.0361 469.323C54.0361 465.751 51.1782 462.893 47.6058 462.893C44.081 462.893 41.1754 465.751 41.1754 469.323C41.1754 472.848 44.0333 475.753 47.6058 475.753ZM47.6058 463.893C50.6066 463.893 52.9882 466.322 52.9882 469.275C52.9882 472.276 50.559 474.658 47.6058 474.658C44.6049 474.658 42.2234 472.229 42.2234 469.275C42.2234 466.322 44.6049 463.893 47.6058 463.893Z" fill="#4691F2"/>
<path d="M45.0814 446.936C45.0814 445.555 46.1769 444.459 47.5582 444.459C48.9396 444.459 50.0352 445.555 50.0352 446.936C50.0352 448.318 48.9396 449.413 47.5582 449.413C46.2245 449.413 45.0814 448.318 45.0814 446.936Z" fill="#4691F2"/>
</g>
</svg>
